<mxfile host="app.diagrams.net" modified="2023-11-12T03:31:49.650Z" agent="Mozilla/5.0 (Macintosh; Intel Mac OS X 10_15_7) AppleWebKit/537.36 (KHTML, like Gecko) Chrome/118.0.0.0 Safari/537.36" version="22.1.0" etag="ue4quazQDXvi87N7sTcS" type="github">
  <diagram name="Page-1" id="i1wE5CyrruigTm9qk2L4">
    <mxGraphModel>
      <root>
        <mxCell id="0" />
        <mxCell id="1" parent="0" />
      </root>
    </mxGraphModel>
  </diagram>
</mxfile>
